<?xml version="1.0" ?><!DOCTYPE svg  PUBLIC '-//W3C//DTD SVG 1.1//EN'  'http://www.w3.org/Graphics/SVG/1.1/DTD/svg11.dtd'><svg enable-background="new 0 0 512 512" height="512px" id="Goal" version="1.1" viewBox="0 0 512 512" width="512px" xml:space="preserve" xmlns="http://www.w3.org/2000/svg" xmlns:xlink="http://www.w3.org/1999/xlink"><linearGradient gradientUnits="userSpaceOnUse" id="SVGID_1_" x1="292.6484" x2="438.7451" y1="162.0781" y2="162.0781"><stop offset="0" style="stop-color:#00FFFF"/><stop offset="1" style="stop-color:#FF7BAC"/></linearGradient><polygon fill="url(#SVGID_1_)" points="438.745,233.675 292.648,233.675 292.648,90.481 438.745,90.481 400.794,162.078 "/><linearGradient gradientUnits="userSpaceOnUse" id="SVGID_2_" x1="186.998" x2="333.0947" y1="130.0059" y2="130.0059"><stop offset="0" style="stop-color:#00FFFF"/><stop offset="1" style="stop-color:#FF7BAC"/></linearGradient><rect fill="url(#SVGID_2_)" height="143.194" width="146.097" x="186.998" y="58.409"/><linearGradient gradientTransform="matrix(-1 0 0 1 -346.3486 0)" gradientUnits="userSpaceOnUse" id="SVGID_3_" x1="-685.1021" x2="-685.1021" y1="463.2705" y2="279.3916"><stop offset="0" style="stop-color:#FFFFFF"/><stop offset="0.3279" style="stop-color:#FCFCFC"/><stop offset="0.5302" style="stop-color:#F4F4F4"/><stop offset="0.6984" style="stop-color:#E5E5E5"/><stop offset="0.848" style="stop-color:#D1D1D1"/><stop offset="0.9839" style="stop-color:#B7B7B7"/><stop offset="1" style="stop-color:#B3B3B3"/></linearGradient><path d="M355.442,279.391l95.61,131.35c-8.966-2.739-18.663-4.422-28.974-4.422c-56,0-70,56.951-135,56.951  c-24.977,0-45.185-2.992-60.625-6.674L355.442,279.391z" fill="url(#SVGID_3_)"/><path d="M196.998,256.686c0-9.327,0-195.846,0-206.941c0-12.869-20-12.891-20,0c0,30.488,0,168.563,0,207.111  L60.947,423.119c11.687-4.871,24.902-8.154,39.314-8.154c56,0,70,56.951,135,56.951c65,0,97.833-20.249,97.833-20.249  L196.998,256.686z" fill="#3F5EAB"/></svg>